<svg width="24" height="24" viewBox="0 0 24 24" fill="none" xmlns="http://www.w3.org/2000/svg">
<path d="M10.479 17.6504C10.8618 17.2676 11.3643 17.0762 11.9863 17.0762C12.6084 17.0762 13.1108 17.2676 13.4937 17.6504C13.8765 18.0332 14.0679 18.5356 14.0679 19.1577C14.0679 19.7798 13.8765 20.2822 13.4937 20.665C13.1108 21.0479 12.6084 21.2393 11.9863 21.2393C11.3643 21.2393 10.8618 21.0479 10.479 20.665C10.0962 20.2822 9.90479 19.7798 9.90479 19.1577C9.90479 18.5356 10.0962 18.0332 10.479 17.6504Z" fill="#727AED" fillOpacity="0.75"/>
<path d="M10.144 13.894C10.144 13.5272 10.2397 13.1922 10.4312 12.8892C10.6305 12.5781 10.8738 12.3229 11.1609 12.1235C11.448 11.9162 11.763 11.6929 12.106 11.4536C12.4489 11.2064 12.7639 10.9671 13.051 10.7358C13.3381 10.5046 13.5774 10.2095 13.7688 9.85059C13.9682 9.48372 14.0679 9.07699 14.0679 8.63037C14.0679 8.11995 13.8645 7.6853 13.4578 7.32642C13.051 6.96753 12.5167 6.78809 11.8547 6.78809C11.4001 6.78809 10.9974 6.86784 10.6465 7.02734C10.3035 7.18685 10.0204 7.38224 9.79712 7.61353C9.58179 7.84481 9.37443 8.07609 9.17505 8.30737C8.97567 8.53068 8.7404 8.72209 8.46924 8.88159C8.20605 9.0411 7.90698 9.12085 7.57202 9.12085C7.0297 9.12085 6.58708 8.95736 6.24414 8.63037C5.9012 8.30339 5.72974 7.89266 5.72974 7.39819C5.72974 6.99146 5.88127 6.5568 6.18433 6.09424C6.48739 5.63167 6.89412 5.19702 7.40454 4.79028C7.92293 4.37557 8.5769 4.03263 9.36646 3.76147C10.156 3.49032 10.9854 3.35474 11.8547 3.35474C12.8118 3.35474 13.6851 3.49829 14.4746 3.7854C15.2721 4.06453 15.9341 4.44735 16.4604 4.93384C16.9868 5.42033 17.3936 5.98258 17.6807 6.62061C17.9678 7.25065 18.1113 7.92057 18.1113 8.63037C18.1113 9.20459 18.0116 9.74691 17.8123 10.2573C17.6208 10.7677 17.3617 11.2144 17.0347 11.5972C16.7157 11.98 16.3966 12.3149 16.0776 12.6021C15.7666 12.8812 15.4316 13.1683 15.0728 13.4634C14.7139 13.7505 14.4587 13.9778 14.3071 14.1453C13.7967 14.7115 13.386 15.0983 13.075 15.3057C12.7639 15.505 12.401 15.6047 11.9863 15.6047C11.444 15.6047 11.0014 15.4452 10.6584 15.1262C10.3155 14.7992 10.144 14.3885 10.144 13.894Z" fill="#727AED"/>
</svg>
